<svg width="267" height="36" viewBox="0 0 267 36" xmlns="http://www.w3.org/2000/svg" xmlns:xlink="http://www.w3.org/1999/xlink"><title>Group 16</title><defs><path d="M5.147 11.457C1.901 13.356 0 16.617 0 21c0 1.436 4 3 4 4 0 3.378.866 5.385 2 7 1.515 2.158 3.73 3.324 7.148 3.324 7.92 0 13.752-5.544 13.752-12.96 0-5.35-3.066-9.68-7.77-11.656-.25-.176-.506-.342-.762-.509-.045-.029-.096-.049-.158-.098a30.284 30.284 0 0 0-2.571-1.382c-.393-.188-.791-.366-1.188-.547a.396.396 0 0 1-.134-.086l-.156-.04c-.964-.386-1.758-1.032-2.564-1.658-.704-.547-1.376-1.132-2.05-1.713-.435-.375-.856-.766-1.282-1.15l-.033-.032c-.244-.219-.5-.426-.719-.672a.208.208 0 0 1-.123-.098c-.313-.284-.63-.565-.94-.854-.367-.345-.727-.698-1.092-1.046-.263-.252-.531-.5-.79-.756-.1-.099-.157-.089-.212.033-.033.073-.073.143-.11.215a.211.211 0 0 1-.061.13 12.56 12.56 0 0 0-.454 1.507l-.026.135c-.083.55-.095 1.107-.136 1.662v.288c.026.132.035.265.031.399-.015.535.069 1.062.13 1.591l.002.128c.069.36.132.722.208 1.082.098.464.205.926.309 1.39l.005.091c.133.252.157.538.251.802.084.235.152.474.227.711l.07.287c.116.313.23.627.345.94z" id="a"/><path id="c" d="M23 8.182V.02H0v8.162z"/><path id="e" d="M.002 3.594h10.336V.008H.002v3.586z"/></defs><g fill="none" fill-rule="evenodd"><path d="M.848 9.764V35h7.488v-6.804h3.96c6.516 0 10.26-3.456 10.26-9.468 0-5.724-3.744-8.964-10.26-8.964H.848zm7.488 5.76h3.6c2.232 0 3.528 1.224 3.528 3.42 0 2.268-1.296 3.492-3.528 3.492h-3.6v-6.912zM40.232 35h8.496l-5.112-8.244c2.736-1.548 4.248-4.284 4.248-8.028 0-5.724-3.888-8.964-10.656-8.964H25.436V35h7.488v-6.804h3.96L40.232 35zm-7.308-12.564v-6.912h4.284c2.232 0 3.528 1.224 3.528 3.42 0 2.268-1.296 3.492-3.528 3.492h-4.284zM63.848 9.548c-7.92 0-13.752 5.4-13.752 12.816 0 7.452 5.832 12.96 13.752 12.96 7.92 0 13.752-5.544 13.752-12.96 0-7.38-5.832-12.816-13.752-12.816zm.108 6.264c3.312 0 5.976 2.772 5.976 6.588 0 3.816-2.664 6.66-5.976 6.66s-6.192-2.844-6.192-6.66c0-3.816 2.844-6.588 6.192-6.588zM96.5 21.824l8.244-12.06h-8.82l-4.212 6.588-4.176-6.588h-8.712l8.352 12.384L78.248 35h8.748l4.716-7.2L96.5 35h9l-9-13.176zm25.452 5.184l9.072-17.244h-7.452l-5.364 10.296L112.7 9.764h-7.488l9.252 17.388V35h7.488v-7.992zm23.076-17.46c-7.812 0-13.572 5.436-13.572 12.78 0 7.452 5.652 12.996 13.32 12.996 3.816 0 7.956-1.908 10.692-4.86l-4.32-4.608c-1.728 1.764-4.068 2.916-6.012 2.916-3.42 0-6.012-2.808-6.012-6.516s2.592-6.48 6.012-6.48c2.088 0 4.428 1.332 6.012 3.348l4.32-5.112c-2.556-2.736-6.624-4.464-10.44-4.464zM172.532 35h8.496l-5.112-8.244c2.736-1.548 4.248-4.284 4.248-8.028 0-5.724-3.888-8.964-10.656-8.964h-11.772V35h7.488v-6.804h3.96L172.532 35zm-7.308-12.564v-6.912h4.284c2.232 0 3.528 1.224 3.528 3.42 0 2.268-1.296 3.492-3.528 3.492h-4.284zm64.476 8.532L231.176 35h7.992L228.764 9.764h-7.704L210.296 35H218l1.512-4.032H229.7zm-1.98-5.472h-6.12l3.096-8.244 3.024 8.244zM257.204 35h8.964l-9.72-14.976 9.144-10.26h-8.64l-8.46 9.72v-9.72h-7.488V35h7.488v-6.048l2.844-3.168L257.204 35z" fill="#00ADD3"/><g transform="translate(183)"><mask id="b" fill="#fff"><use xlink:href="#a"/></mask><use fill="#00ADD3" xlink:href="#a"/><path d="M7.55 38.668c-2.773-1.094-4.502-3.114-5.379-5.852-.298-.932-.16-1.902.013-2.85C2.486 28.305 2.989 26.374 4 25c.125-.17.837.839 1 1 .592.587.724.535 1.46.958.795.458 1.669.652 2.572.732 1.432.128 2.868.186 4.306.1.786-.048 1.568-.164 2.357-.143 1.466.039 2.794.475 3.923 1.4.95.78 1.307 1.836 1.369 3.013.125 2.405-.96 4.24-2.823 5.707-1.078.848-2.28 1.45-3.646 1.724-.031.006-.06.023-.09.035-.736.124-1.478.163-2.223.17-1.614-.075-3.16-.438-4.655-1.028z" fill="#EA5176" mask="url(#b)"/></g><g transform="translate(183 14.897)"><mask id="d" fill="#fff"><use xlink:href="#c"/></mask><path d="M10.76 4.965c.064.007.115-.027.166-.055.324-.087.627-.236.948-.33.138-.04.142-.116.118-.222-.099-.444-.092-.898-.127-1.348l.123.01c.16.015.316.044.478.05.5.015 1 .03 1.496-.036.344-.045.69-.084 1.012-.222l.062-.004c.134-.039.27-.074.392-.143a.49.49 0 0 0 .225-.107c.172-.015.296-.134.438-.208.219-.115.422-.258.599-.434.15-.074.246-.21.367-.319.087-.056.113-.16.185-.229.068-.015.064-.083.096-.126.27-.298.419-.666.597-1.045l.37.655c.225.398.449.795.672 1.193l.036.063c.056.173.177.312.245.478.11.272.302.463.57.582l.098.064.94.602.26.161 1.618 1.035.097.063c.042.062.149.06.159.154-.055.04-.122.065-.159.127-.274.25-.419.573-.515.92-.067.243-.074.497-.114.754l-.178-.101-.55-.417-.096-.062a.583.583 0 0 0-.224-.162.325.325 0 0 0-.164-.127c-.03-.063-.084-.096-.146-.12l-.004-.001c-.023-.027-.032-.071-.081-.066-.132-.108-.252-.23-.415-.296l-.069-.065c-.027-.074-.122-.071-.157-.136-.09-.017-.112-.126-.2-.144-.06-.027-.082-.108-.161-.105-.128-.099-.258-.196-.384-.298-.152-.123-.155-.123-.198.077-.036.034-.036.081-.046.124-.146.376-.32.74-.514 1.093l-.06.094-.066.095c-.027.032-.056.063-.081.097-.414.545-.94.92-1.625 1.053-.49.094-.974.052-1.452-.075-1.047-.277-1.944-.83-2.784-1.486-.28-.218-.164-.213-.475-.036-.728.414-1.453.835-2.18 1.254-.168-.058-.34-.106-.502-.176-.108-.048-.186-.031-.28.031a7.356 7.356 0 0 1-1.653.835c-.733.252-1.48.358-2.238.124-.955-.294-1.569-.963-1.984-1.834-.05-.105-.096-.156-.21-.102-.19-.304-.378-.61-.569-.913-.116-.186-.085-.193-.278-.06-.476.333-.975.572-1.57.299l.003.002c-.012-.03-.036-.04-.066-.036l.003.002c-.002-.024-.017-.03-.04-.029A2.85 2.85 0 0 1 .1 4.87c-.086-.214-.094-.437-.1-.665-.007-.35.058-.692.073-1.039.046-.034.035-.083.034-.13.02-.107.042-.214.063-.32V2.65l.322-.978c.022-.059.067-.11.059-.178.179-.292.306-.612.521-.884.144-.182.275-.374.447-.531.036-.034.086-.117.128 0-.042.084-.018.173-.02.26-.023.286.03.551.22.778.033.103.121.158.196.224.035.032.067.068.105.096.316.237.685.339 1.066.412.08.015.185-.01.23.094v.064c-.032.332-.103.66-.097.995-.04.048-.044.103-.033.16-.048.256-.029.519-.097.772-.021.08-.001.15.065.216.836.835 1.67 1.671 2.5 2.512.086.086.155.1.248.032a.359.359 0 0 0 .164-.062c.114-.034.232-.06.334-.126l.039-.005c.105-.034.218-.053.307-.126.035-.002.075.01.097-.031a.664.664 0 0 0 .262-.09c.036-.004.074 0 .094-.039.031-.006.064-.008.093-.018.516-.187 1.034-.369 1.547-.563.597-.226 1.207-.418 1.794-.67" fill="#595757" mask="url(#d)"/></g><path d="M183.1 19.766c.117.19.262.356.419.512l.039.03-.003-.003c.014.027.032.047.066.036l-.003-.002c-.009.03.009.051.029.069.326.292.682.538 1.106.669.434.133.864.15 1.282-.064.114-.053.16-.003.21.102.415.871 1.03 1.54 1.984 1.835.758.233 1.505.127 2.238-.125a7.356 7.356 0 0 0 1.653-.835c.094-.062.172-.078.28-.031.162.07.334.118.502.176.162.056.323.118.488.168 1.344.408 2.709.696 4.124.686.908-.006 1.796-.126 2.632-.497.56-.249 1.08-.557 1.455-1.057.07-.057.125-.128.186-.192.127-.132.177-.327.352-.418.013.034.005.075.038.102l.043.247c.032.16.035.32.007.482l-.008.096-.03.085a136.7 136.7 0 0 1-.034.107 2.283 2.283 0 0 1-.348.619c-.168.225-.401.376-.597.568l-.048.06c-.094.042-.196.066-.275.136l-.065.033-.099.057a1.437 1.437 0 0 0-.292.16.25.25 0 0 0-.163.06 2.056 2.056 0 0 0-.372.152l-.046.018-.069.019-.064.034c-.276.071-.546.172-.839.143h-.097c-.3-.07-.608-.01-.908-.064-.465-.035-.93-.081-1.396-.101-.386-.016-.768-.066-1.15-.107-.53-.057-1.058-.14-1.581-.249-.417-.087-.835-.173-1.219-.366-.088-.045-.141-.031-.214.02a6.182 6.182 0 0 1-1.512.79c-.82.291-1.656.408-2.518.2-.258-.062-.493-.182-.746-.253l-.152-.08-.523-.345c-.028-.038-.049-.082-.096-.102l-.196-.153-.096-.095-.129-.129-.032-.032-.091-.131c-.021-.045-.063-.068-.102-.094-.03-.064-.06-.127-.129-.161-.002-.046-.02-.081-.067-.096-.035-.058-.064-.123-.108-.175-.048-.056-.065-.14-.172-.145a4.242 4.242 0 0 1-1.246-.253l-.31-.126c-.145-.105-.31-.178-.435-.31l-.124-.083-.064-.09-.004-.01-.103-.121-.092-.133-.066-.124c-.011-.039-.022-.077-.062-.097l-.021-.099a2.107 2.107 0 0 1-.114-.51c0-.115.006-.231 0-.346-.003-.084.039-.082.097-.067" fill="#EA5176"/><g transform="translate(187.535 23.08)"><mask id="f" fill="#fff"><use xlink:href="#e"/></mask><path d="M.002.792c.253.071.488.191.745.253.863.209 1.699.092 2.519-.2A6.183 6.183 0 0 0 4.778.056c.073-.052.126-.065.214-.02.383.192.802.278 1.218.366.523.11 1.052.191 1.582.249.382.04.764.09 1.15.106.466.02.93.067 1.396.102-.342.416-.745.77-1.144 1.13l-.15.124c-.349.26-.701.513-1.08.728-.566.321-1.17.54-1.804.68a.326.326 0 0 0-.162.028c-.054.003-.108.003-.16.01a5.149 5.149 0 0 1-1.572-.058c-.467-.088-.91-.25-1.346-.432L2.767 3l-.588-.327-.161-.103a16.895 16.895 0 0 1-.975-.726L.956 1.76a16.9 16.9 0 0 1-.95-.94.248.248 0 0 0-.005-.028" fill="#F6F7F7" mask="url(#f)"/></g></g></svg>