<?xml version="1.0" encoding="UTF-8" ?>
<svg version="1.1" width="24" height="24" xmlns="http://www.w3.org/2000/svg" shape-rendering="crispEdges">
<rect x="16" y="2" width="1" height="1" fill="#2F2F2F" />
<rect x="17" y="2" width="1" height="1" fill="#2F2F2F" />
<rect x="18" y="2" width="1" height="1" fill="#2F2F2F" />
<rect x="19" y="2" width="1" height="1" fill="#2F2F2F" />
<rect x="15" y="3" width="1" height="1" fill="#2F2F2F" />
<rect x="16" y="3" width="1" height="1" fill="#E8D060" />
<rect x="17" y="3" width="1" height="1" fill="#F8F07F" />
<rect x="18" y="3" width="1" height="1" fill="#F8F07F" />
<rect x="19" y="3" width="1" height="1" fill="#E8D060" />
<rect x="20" y="3" width="1" height="1" fill="#2F2F2F" />
<rect x="14" y="4" width="1" height="1" fill="#2F2F2F" />
<rect x="15" y="4" width="1" height="1" fill="#D05038" />
<rect x="16" y="4" width="1" height="1" fill="#D05038" />
<rect x="17" y="4" width="1" height="1" fill="#D05038" />
<rect x="18" y="4" width="1" height="1" fill="#E8D060" />
<rect x="19" y="4" width="1" height="1" fill="#E8D060" />
<rect x="20" y="4" width="1" height="1" fill="#C0A82F" />
<rect x="21" y="4" width="1" height="1" fill="#2F2F2F" />
<rect x="13" y="5" width="1" height="1" fill="#2F2F2F" />
<rect x="14" y="5" width="1" height="1" fill="#E8D060" />
<rect x="15" y="5" width="1" height="1" fill="#F8F07F" />
<rect x="16" y="5" width="1" height="1" fill="#E8D060" />
<rect x="17" y="5" width="1" height="1" fill="#E8D060" />
<rect x="18" y="5" width="1" height="1" fill="#D05038" />
<rect x="19" y="5" width="1" height="1" fill="#C0A82F" />
<rect x="20" y="5" width="1" height="1" fill="#C0A82F" />
<rect x="21" y="5" width="1" height="1" fill="#2F2F2F" />
<rect x="12" y="6" width="1" height="1" fill="#2F2F2F" />
<rect x="13" y="6" width="1" height="1" fill="#E8D060" />
<rect x="14" y="6" width="1" height="1" fill="#F8F07F" />
<rect x="15" y="6" width="1" height="1" fill="#E8D060" />
<rect x="16" y="6" width="1" height="1" fill="#2F2F2F" />
<rect x="17" y="6" width="1" height="1" fill="#2F2F2F" />
<rect x="18" y="6" width="1" height="1" fill="#E8D060" />
<rect x="19" y="6" width="1" height="1" fill="#A02008" />
<rect x="20" y="6" width="1" height="1" fill="#C0A82F" />
<rect x="21" y="6" width="1" height="1" fill="#2F2F2F" />
<rect x="7" y="7" width="1" height="1" fill="#2F2F2F" />
<rect x="8" y="7" width="1" height="1" fill="#2F2F2F" />
<rect x="9" y="7" width="1" height="1" fill="#2F2F2F" />
<rect x="10" y="7" width="1" height="1" fill="#2F2F2F" />
<rect x="11" y="7" width="1" height="1" fill="#2F2F2F" />
<rect x="12" y="7" width="1" height="1" fill="#E8D060" />
<rect x="13" y="7" width="1" height="1" fill="#F8F07F" />
<rect x="14" y="7" width="1" height="1" fill="#E8D060" />
<rect x="15" y="7" width="1" height="1" fill="#E8D060" />
<rect x="16" y="7" width="1" height="1" fill="#2F2F2F" />
<rect x="17" y="7" width="1" height="1" fill="#2F2F2F" />
<rect x="18" y="7" width="1" height="1" fill="#E8D060" />
<rect x="19" y="7" width="1" height="1" fill="#A02008" />
<rect x="20" y="7" width="1" height="1" fill="#C0A82F" />
<rect x="21" y="7" width="1" height="1" fill="#2F2F2F" />
<rect x="5" y="8" width="1" height="1" fill="#2F2F2F" />
<rect x="6" y="8" width="1" height="1" fill="#2F2F2F" />
<rect x="7" y="8" width="1" height="1" fill="#E8E8F0" />
<rect x="8" y="8" width="1" height="1" fill="#E8E8F0" />
<rect x="9" y="8" width="1" height="1" fill="#E8E8F0" />
<rect x="10" y="8" width="1" height="1" fill="#E8E8F0" />
<rect x="11" y="8" width="1" height="1" fill="#E8E8F0" />
<rect x="12" y="8" width="1" height="1" fill="#787880" />
<rect x="13" y="8" width="1" height="1" fill="#787880" />
<rect x="14" y="8" width="1" height="1" fill="#2F2F2F" />
<rect x="15" y="8" width="1" height="1" fill="#2F2F2F" />
<rect x="16" y="8" width="1" height="1" fill="#E8D060" />
<rect x="17" y="8" width="1" height="1" fill="#C0A82F" />
<rect x="18" y="8" width="1" height="1" fill="#C0A82F" />
<rect x="19" y="8" width="1" height="1" fill="#A02008" />
<rect x="20" y="8" width="1" height="1" fill="#2F2F2F" />
<rect x="4" y="9" width="1" height="1" fill="#2F2F2F" />
<rect x="5" y="9" width="1" height="1" fill="#E8E8F0" />
<rect x="6" y="9" width="1" height="1" fill="#E8E8F0" />
<rect x="7" y="9" width="1" height="1" fill="#E8E8F0" />
<rect x="8" y="9" width="1" height="1" fill="#E8E8F0" />
<rect x="9" y="9" width="1" height="1" fill="#E8E8F0" />
<rect x="10" y="9" width="1" height="1" fill="#E8E8F0" />
<rect x="11" y="9" width="1" height="1" fill="#E8E8F0" />
<rect x="12" y="9" width="1" height="1" fill="#E8E8F0" />
<rect x="13" y="9" width="1" height="1" fill="#C8C8D0" />
<rect x="14" y="9" width="1" height="1" fill="#787880" />
<rect x="15" y="9" width="1" height="1" fill="#2F2F2F" />
<rect x="16" y="9" width="1" height="1" fill="#E8D060" />
<rect x="17" y="9" width="1" height="1" fill="#C0A82F" />
<rect x="18" y="9" width="1" height="1" fill="#C0A82F" />
<rect x="19" y="9" width="1" height="1" fill="#2F2F2F" />
<rect x="3" y="10" width="1" height="1" fill="#2F2F2F" />
<rect x="4" y="10" width="1" height="1" fill="#A02008" />
<rect x="5" y="10" width="1" height="1" fill="#D05038" />
<rect x="6" y="10" width="1" height="1" fill="#D05038" />
<rect x="7" y="10" width="1" height="1" fill="#D05038" />
<rect x="8" y="10" width="1" height="1" fill="#A02008" />
<rect x="9" y="10" width="1" height="1" fill="#E8E8F0" />
<rect x="10" y="10" width="1" height="1" fill="#E8E8F0" />
<rect x="11" y="10" width="1" height="1" fill="#E8E8F0" />
<rect x="12" y="10" width="1" height="1" fill="#E8E8F0" />
<rect x="13" y="10" width="1" height="1" fill="#E8E8F0" />
<rect x="14" y="10" width="1" height="1" fill="#C8C8D0" />
<rect x="15" y="10" width="1" height="1" fill="#787880" />
<rect x="16" y="10" width="1" height="1" fill="#C0A82F" />
<rect x="17" y="10" width="1" height="1" fill="#C0A82F" />
<rect x="18" y="10" width="1" height="1" fill="#2F2F2F" />
<rect x="3" y="11" width="1" height="1" fill="#2F2F2F" />
<rect x="4" y="11" width="1" height="1" fill="#F07058" />
<rect x="5" y="11" width="1" height="1" fill="#F8F8F8" />
<rect x="6" y="11" width="1" height="1" fill="#F8F8F8" />
<rect x="7" y="11" width="1" height="1" fill="#F07058" />
<rect x="8" y="11" width="1" height="1" fill="#D05038" />
<rect x="9" y="11" width="1" height="1" fill="#A02008" />
<rect x="10" y="11" width="1" height="1" fill="#A02008" />
<rect x="11" y="11" width="1" height="1" fill="#E8E8F0" />
<rect x="12" y="11" width="1" height="1" fill="#E8E8F0" />
<rect x="13" y="11" width="1" height="1" fill="#E8E8F0" />
<rect x="14" y="11" width="1" height="1" fill="#C8C8D0" />
<rect x="15" y="11" width="1" height="1" fill="#787880" />
<rect x="16" y="11" width="1" height="1" fill="#C0A82F" />
<rect x="17" y="11" width="1" height="1" fill="#2F2F2F" />
<rect x="2" y="12" width="1" height="1" fill="#2F2F2F" />
<rect x="3" y="12" width="1" height="1" fill="#D05038" />
<rect x="4" y="12" width="1" height="1" fill="#F07058" />
<rect x="5" y="12" width="1" height="1" fill="#F8F8F8" />
<rect x="6" y="12" width="1" height="1" fill="#F8F8F8" />
<rect x="7" y="12" width="1" height="1" fill="#F07058" />
<rect x="8" y="12" width="1" height="1" fill="#D05038" />
<rect x="9" y="12" width="1" height="1" fill="#D05038" />
<rect x="10" y="12" width="1" height="1" fill="#D05038" />
<rect x="11" y="12" width="1" height="1" fill="#A02008" />
<rect x="12" y="12" width="1" height="1" fill="#E8E8F0" />
<rect x="13" y="12" width="1" height="1" fill="#E8E8F0" />
<rect x="14" y="12" width="1" height="1" fill="#C8C8D0" />
<rect x="15" y="12" width="1" height="1" fill="#C8C8D0" />
<rect x="16" y="12" width="1" height="1" fill="#2F2F2F" />
<rect x="2" y="13" width="1" height="1" fill="#2F2F2F" />
<rect x="3" y="13" width="1" height="1" fill="#D05038" />
<rect x="4" y="13" width="1" height="1" fill="#D05038" />
<rect x="5" y="13" width="1" height="1" fill="#F07058" />
<rect x="6" y="13" width="1" height="1" fill="#F07058" />
<rect x="7" y="13" width="1" height="1" fill="#D05038" />
<rect x="8" y="13" width="1" height="1" fill="#D05038" />
<rect x="9" y="13" width="1" height="1" fill="#D05038" />
<rect x="10" y="13" width="1" height="1" fill="#D05038" />
<rect x="11" y="13" width="1" height="1" fill="#D05038" />
<rect x="12" y="13" width="1" height="1" fill="#A02008" />
<rect x="13" y="13" width="1" height="1" fill="#E8E8F0" />
<rect x="14" y="13" width="1" height="1" fill="#C8C8D0" />
<rect x="15" y="13" width="1" height="1" fill="#C8C8D0" />
<rect x="16" y="13" width="1" height="1" fill="#2F2F2F" />
<rect x="2" y="14" width="1" height="1" fill="#2F2F2F" />
<rect x="3" y="14" width="1" height="1" fill="#D05038" />
<rect x="4" y="14" width="1" height="1" fill="#D05038" />
<rect x="5" y="14" width="1" height="1" fill="#F07058" />
<rect x="6" y="14" width="1" height="1" fill="#D05038" />
<rect x="7" y="14" width="1" height="1" fill="#D05038" />
<rect x="8" y="14" width="1" height="1" fill="#D05038" />
<rect x="9" y="14" width="1" height="1" fill="#D05038" />
<rect x="10" y="14" width="1" height="1" fill="#D05038" />
<rect x="11" y="14" width="1" height="1" fill="#D05038" />
<rect x="12" y="14" width="1" height="1" fill="#A02008" />
<rect x="13" y="14" width="1" height="1" fill="#C8C8D0" />
<rect x="14" y="14" width="1" height="1" fill="#C8C8D0" />
<rect x="15" y="14" width="1" height="1" fill="#C8C8D0" />
<rect x="16" y="14" width="1" height="1" fill="#2F2F2F" />
<rect x="2" y="15" width="1" height="1" fill="#2F2F2F" />
<rect x="3" y="15" width="1" height="1" fill="#D05038" />
<rect x="4" y="15" width="1" height="1" fill="#A02008" />
<rect x="5" y="15" width="1" height="1" fill="#A02008" />
<rect x="6" y="15" width="1" height="1" fill="#A02008" />
<rect x="7" y="15" width="1" height="1" fill="#D05038" />
<rect x="8" y="15" width="1" height="1" fill="#D05038" />
<rect x="9" y="15" width="1" height="1" fill="#D05038" />
<rect x="10" y="15" width="1" height="1" fill="#D05038" />
<rect x="11" y="15" width="1" height="1" fill="#D05038" />
<rect x="12" y="15" width="1" height="1" fill="#B73820" />
<rect x="13" y="15" width="1" height="1" fill="#A02008" />
<rect x="14" y="15" width="1" height="1" fill="#C8C8D0" />
<rect x="15" y="15" width="1" height="1" fill="#C8C8D0" />
<rect x="16" y="15" width="1" height="1" fill="#2F2F2F" />
<rect x="2" y="16" width="1" height="1" fill="#A02008" />
<rect x="3" y="16" width="1" height="1" fill="#C0A82F" />
<rect x="4" y="16" width="1" height="1" fill="#F8F07F" />
<rect x="5" y="16" width="1" height="1" fill="#E8D060" />
<rect x="6" y="16" width="1" height="1" fill="#E8D060" />
<rect x="7" y="16" width="1" height="1" fill="#A02008" />
<rect x="8" y="16" width="1" height="1" fill="#D05038" />
<rect x="9" y="16" width="1" height="1" fill="#D05038" />
<rect x="10" y="16" width="1" height="1" fill="#D05038" />
<rect x="11" y="16" width="1" height="1" fill="#D05038" />
<rect x="12" y="16" width="1" height="1" fill="#B73820" />
<rect x="13" y="16" width="1" height="1" fill="#A02008" />
<rect x="14" y="16" width="1" height="1" fill="#C8C8D0" />
<rect x="15" y="16" width="1" height="1" fill="#C8C8D0" />
<rect x="16" y="16" width="1" height="1" fill="#2F2F2F" />
<rect x="2" y="17" width="1" height="1" fill="#2F2F2F" />
<rect x="3" y="17" width="1" height="1" fill="#E8D060" />
<rect x="4" y="17" width="1" height="1" fill="#E8D060" />
<rect x="5" y="17" width="1" height="1" fill="#E8D060" />
<rect x="6" y="17" width="1" height="1" fill="#C0A82F" />
<rect x="7" y="17" width="1" height="1" fill="#C0A82F" />
<rect x="8" y="17" width="1" height="1" fill="#A02008" />
<rect x="9" y="17" width="1" height="1" fill="#D05038" />
<rect x="10" y="17" width="1" height="1" fill="#D05038" />
<rect x="11" y="17" width="1" height="1" fill="#B73820" />
<rect x="12" y="17" width="1" height="1" fill="#B73820" />
<rect x="13" y="17" width="1" height="1" fill="#A02008" />
<rect x="14" y="17" width="1" height="1" fill="#C8C8D0" />
<rect x="15" y="17" width="1" height="1" fill="#2F2F2F" />
<rect x="1" y="18" width="1" height="1" fill="#2F2F2F" />
<rect x="2" y="18" width="1" height="1" fill="#C0A82F" />
<rect x="3" y="18" width="1" height="1" fill="#2F2F2F" />
<rect x="4" y="18" width="1" height="1" fill="#2F2F2F" />
<rect x="5" y="18" width="1" height="1" fill="#C0A82F" />
<rect x="6" y="18" width="1" height="1" fill="#C0A82F" />
<rect x="7" y="18" width="1" height="1" fill="#C0A82F" />
<rect x="8" y="18" width="1" height="1" fill="#A02008" />
<rect x="9" y="18" width="1" height="1" fill="#B73820" />
<rect x="10" y="18" width="1" height="1" fill="#B73820" />
<rect x="11" y="18" width="1" height="1" fill="#B73820" />
<rect x="12" y="18" width="1" height="1" fill="#B73820" />
<rect x="13" y="18" width="1" height="1" fill="#A02008" />
<rect x="14" y="18" width="1" height="1" fill="#C8C8D0" />
<rect x="15" y="18" width="1" height="1" fill="#2F2F2F" />
<rect x="1" y="19" width="1" height="1" fill="#2F2F2F" />
<rect x="2" y="19" width="1" height="1" fill="#8F5F28" />
<rect x="3" y="19" width="1" height="1" fill="#2F2F2F" />
<rect x="4" y="19" width="1" height="1" fill="#2F2F2F" />
<rect x="5" y="19" width="1" height="1" fill="#2F2F2F" />
<rect x="6" y="19" width="1" height="1" fill="#C0A82F" />
<rect x="7" y="19" width="1" height="1" fill="#C0A82F" />
<rect x="8" y="19" width="1" height="1" fill="#A02008" />
<rect x="9" y="19" width="1" height="1" fill="#B73820" />
<rect x="10" y="19" width="1" height="1" fill="#B73820" />
<rect x="11" y="19" width="1" height="1" fill="#B73820" />
<rect x="12" y="19" width="1" height="1" fill="#B73820" />
<rect x="13" y="19" width="1" height="1" fill="#A02008" />
<rect x="14" y="19" width="1" height="1" fill="#2F2F2F" />
<rect x="1" y="20" width="1" height="1" fill="#2F2F2F" />
<rect x="2" y="20" width="1" height="1" fill="#8F5F28" />
<rect x="3" y="20" width="1" height="1" fill="#8F5F28" />
<rect x="4" y="20" width="1" height="1" fill="#2F2F2F" />
<rect x="5" y="20" width="1" height="1" fill="#2F2F2F" />
<rect x="6" y="20" width="1" height="1" fill="#C0A82F" />
<rect x="7" y="20" width="1" height="1" fill="#8F5F28" />
<rect x="8" y="20" width="1" height="1" fill="#B73820" />
<rect x="9" y="20" width="1" height="1" fill="#B73820" />
<rect x="10" y="20" width="1" height="1" fill="#B73820" />
<rect x="11" y="20" width="1" height="1" fill="#B73820" />
<rect x="12" y="20" width="1" height="1" fill="#2F2F2F" />
<rect x="13" y="20" width="1" height="1" fill="#2F2F2F" />
<rect x="2" y="21" width="1" height="1" fill="#2F2F2F" />
<rect x="3" y="21" width="1" height="1" fill="#8F5F28" />
<rect x="4" y="21" width="1" height="1" fill="#8F5F28" />
<rect x="5" y="21" width="1" height="1" fill="#8F5F28" />
<rect x="6" y="21" width="1" height="1" fill="#2F2F2F" />
<rect x="7" y="21" width="1" height="1" fill="#2F2F2F" />
<rect x="8" y="21" width="1" height="1" fill="#2F2F2F" />
<rect x="9" y="21" width="1" height="1" fill="#2F2F2F" />
<rect x="10" y="21" width="1" height="1" fill="#2F2F2F" />
<rect x="11" y="21" width="1" height="1" fill="#2F2F2F" />
<rect x="3" y="22" width="1" height="1" fill="#2F2F2F" />
<rect x="4" y="22" width="1" height="1" fill="#2F2F2F" />
<rect x="5" y="22" width="1" height="1" fill="#2F2F2F" />
</svg>