<svg width="75" height="106" viewBox="0 0 75 106" xmlns="http://www.w3.org/2000/svg" xmlns:xlink="http://www.w3.org/1999/xlink"><title>format-pic</title><defs><path id="a" d="M0 0h55v34H0z"/><path d="M3.813 8.593C1.408 10.017 0 12.463 0 15.75c0 1.077 2.963 2.25 2.963 3 0 2.533.642 4.039 1.481 5.25 1.123 1.618 2.764 2.493 5.295 2.493 5.867 0 10.187-4.158 10.187-9.72 0-4.013-2.271-7.26-5.756-8.742a17.378 17.378 0 0 0-.564-.382c-.033-.021-.071-.036-.117-.073a22.344 22.344 0 0 0-1.905-1.037c-.291-.14-.586-.274-.88-.41a.293.293 0 0 1-.099-.065l-.115-.03c-.714-.29-1.303-.774-1.9-1.243-.521-.41-1.02-.849-1.519-1.285-.321-.281-.633-.574-.95-.862l-.023-.024c-.181-.164-.37-.32-.533-.504a.154.154 0 0 1-.09-.073c-.233-.214-.468-.425-.697-.642-.272-.258-.539-.523-.809-.784-.195-.19-.393-.375-.585-.567-.074-.074-.117-.066-.157.025-.025.055-.054.107-.081.16a.16.16 0 0 1-.046.1c-.14.368-.244.747-.336 1.13l-.02.101c-.061.413-.07.83-.1 1.246v.217c.019.099.026.198.023.299-.011.401.05.796.096 1.193l.001.096c.051.27.098.542.154.811.073.349.153.695.23 1.043l.003.069c.098.189.117.403.186.601.062.176.113.356.168.534l.052.215.256.704v-.001z" id="c"/><path id="e" d="M17.037 6.137V.015H0v6.122z"/><path id="g" d="M.002 2.696h7.655V.006H.002v2.69z"/></defs><g fill="none" fill-rule="evenodd"><rect fill="#FFE259" width="75" height="106" rx="5"/><path d="M5 5.006C5 5.004 69.992 5 69.992 5c.006 0 .008 95.994.008 95.994 0 .002-64.992.006-64.992.006C5.002 101 5 5.006 5 5.006z" fill="#B183C2"/><path fill="#9460A8" d="M10 10h21v4H10z"/><g transform="translate(10 18)"><mask id="b" fill="#fff"><use xlink:href="#a"/></mask><g mask="url(#b)" stroke-width="4" stroke="#DFF5FF" fill="#B9E0F3"><path d="M0 0h55v34H0z"/></g></g><path d="M31.813 29.593C29.408 31.017 28 33.463 28 36.75c0 1.077 2.963 2.25 2.963 3 0 2.533.642 4.039 1.481 5.25 1.123 1.618 2.764 2.493 5.295 2.493 5.867 0 10.187-4.158 10.187-9.72 0-4.013-2.271-7.26-5.756-8.742a17.378 17.378 0 0 0-.564-.382c-.033-.021-.071-.036-.117-.073a22.344 22.344 0 0 0-1.905-1.037c-.291-.14-.586-.274-.88-.41a.293.293 0 0 1-.099-.065l-.115-.03c-.714-.29-1.303-.774-1.9-1.243-.521-.41-1.02-.849-1.519-1.285-.321-.281-.633-.574-.95-.862l-.023-.024c-.181-.164-.37-.32-.533-.504a.154.154 0 0 1-.09-.073c-.233-.214-.468-.425-.697-.642-.272-.258-.539-.523-.809-.784-.195-.19-.393-.375-.585-.567-.074-.074-.117-.066-.157.025-.025.055-.054.107-.081.16a.16.16 0 0 1-.046.1c-.14.368-.244.747-.336 1.13l-.02.101c-.061.413-.07.83-.1 1.246v.217c.019.099.026.198.023.299-.011.401.05.796.096 1.193l.001.096c.051.27.098.542.154.811.073.349.153.695.23 1.043l.003.069c.098.189.117.403.186.601.062.176.113.356.168.534l.052.215.256.704v-.001z" fill="#00ADD3"/><g transform="translate(28 21)"><mask id="d" fill="#fff"><use xlink:href="#c"/></mask><path d="M5.593 29.001c-2.054-.82-3.335-2.336-3.985-4.39-.22-.698-.118-1.426.01-2.136.224-1.247.596-2.695 1.345-3.725.093-.127.62.629.74.75.44.44.537.401 1.082.719.589.343 1.236.488 1.905.549 1.061.095 2.125.139 3.19.074.582-.035 1.161-.123 1.746-.107 1.086.03 2.07.356 2.906 1.05.704.585.968 1.377 1.014 2.26.093 1.803-.712 3.18-2.091 4.28-.798.636-1.69 1.088-2.7 1.293-.024.005-.045.018-.068.027-.544.092-1.094.122-1.646.127a10.577 10.577 0 0 1-3.448-.77v-.001z" fill="#EA5176" mask="url(#d)"/></g><g transform="translate(28 32.173)"><mask id="f" fill="#fff"><use xlink:href="#e"/></mask><path d="M7.971 3.724c.047.005.084-.02.123-.041.24-.066.464-.177.701-.248.103-.03.105-.087.088-.166-.073-.333-.068-.674-.094-1.011l.09.007c.119.011.235.033.355.037.37.011.74.023 1.109-.026.254-.035.51-.064.75-.167l.045-.003c.099-.03.2-.056.29-.107a.362.362 0 0 0 .167-.08c.127-.012.22-.1.325-.157.161-.086.312-.193.443-.325.111-.055.182-.158.272-.24.065-.04.084-.12.137-.17.05-.012.048-.064.07-.095.201-.224.311-.5.443-.784l.275.491.497.895.027.047c.041.13.13.234.18.359.077.197.23.354.424.436l.072.048.697.451.192.121 1.198.776.073.048c.03.047.11.045.117.115-.04.03-.09.05-.117.096-.204.187-.311.43-.382.69-.05.182-.055.373-.085.565l-.131-.076-.408-.312-.07-.047a.432.432 0 0 0-.167-.122.241.241 0 0 0-.121-.095c-.022-.047-.063-.072-.109-.09h-.002c-.017-.021-.024-.054-.06-.05-.098-.08-.187-.173-.308-.222l-.051-.048c-.02-.057-.09-.054-.117-.103-.066-.012-.082-.094-.148-.107-.044-.02-.06-.082-.12-.08-.094-.074-.19-.146-.283-.223-.113-.092-.115-.093-.147.058-.026.025-.026.06-.034.093a6.86 6.86 0 0 1-.38.82l-.046.07-.048.071c-.02.024-.041.048-.06.073-.307.409-.696.69-1.204.79-.363.07-.721.038-1.076-.057-.775-.207-1.44-.621-2.062-1.114-.207-.163-.12-.16-.351-.027-.54.31-1.077.626-1.615.94-.124-.043-.252-.079-.372-.132-.08-.035-.138-.023-.208.024-.38.26-.791.47-1.224.626-.543.189-1.096.269-1.657.093-.708-.22-1.163-.722-1.47-1.376-.037-.078-.071-.116-.156-.076l-.421-.685c-.086-.139-.064-.145-.206-.044-.353.25-.722.428-1.163.223l.002.002c-.009-.022-.026-.03-.049-.027l.002.002C.412 4.04.401 4.034.384 4.036a2.133 2.133 0 0 1-.31-.384C.01 3.492.004 3.324 0 3.153c-.005-.262.043-.519.054-.78.034-.025.026-.062.025-.096l.047-.241v-.047l.239-.734c.016-.044.05-.082.043-.134C.54.902.635.662.794.458.901.322.998.178 1.125.06c.027-.025.064-.087.095 0-.031.063-.013.13-.015.195-.017.214.022.413.163.584.025.076.09.118.146.167.025.025.05.052.077.073.234.177.507.254.79.308.06.012.136-.007.17.071v.048c-.023.25-.076.495-.072.747-.03.035-.032.076-.024.12-.036.191-.022.389-.072.578-.016.06 0 .113.048.163.62.625 1.238 1.253 1.853 1.883.062.065.114.075.183.024a.264.264 0 0 0 .12-.046c.086-.026.173-.045.249-.095.01 0 .019-.002.028-.003.078-.026.162-.04.228-.095.026-.002.055.008.072-.024a.488.488 0 0 0 .194-.067c.026-.003.055 0 .07-.029.023-.004.047-.006.069-.014.382-.14.765-.276 1.145-.422.443-.169.894-.313 1.329-.502" fill="#595757" mask="url(#f)"/></g><path d="M28.074 35.825a2.2 2.2 0 0 0 .31.384l.03.022-.003-.002c.01.02.024.035.05.027l-.003-.002c-.007.023.006.038.021.052.242.219.505.404.82.502.32.1.64.112.95-.048.084-.04.118-.002.155.076.307.654.762 1.155 1.47 1.376.561.176 1.114.096 1.657-.093a5.42 5.42 0 0 0 1.224-.626c.07-.047.128-.06.208-.024.12.053.248.089.372.132.12.042.24.089.361.126.996.306 2.007.522 3.055.515.673-.005 1.33-.095 1.95-.373.414-.186.8-.418 1.078-.793.052-.042.092-.096.137-.144.095-.1.132-.245.26-.314.01.026.005.057.03.077l.031.185a.98.98 0 0 1 .005.362l-.006.072-.022.064-.025.08c-.058.17-.152.32-.258.464-.124.169-.297.282-.442.427l-.035.044c-.07.031-.146.05-.205.102l-.048.025-.073.043a1.06 1.06 0 0 0-.216.12.183.183 0 0 0-.12.045 1.513 1.513 0 0 0-.277.114l-.034.014-.05.013-.048.026c-.204.053-.405.13-.621.108h-.072c-.222-.053-.45-.008-.673-.049-.345-.026-.689-.06-1.034-.076-.286-.012-.569-.049-.851-.08a11.834 11.834 0 0 1-1.172-.186c-.31-.066-.619-.13-.903-.275-.065-.034-.104-.023-.158.016a4.56 4.56 0 0 1-1.12.591c-.608.219-1.227.307-1.866.15-.19-.046-.365-.136-.552-.19l-.113-.06-.387-.258c-.02-.028-.036-.061-.071-.077l-.146-.115-.07-.07-.096-.097-.024-.024-.067-.099c-.016-.034-.047-.05-.076-.07-.022-.048-.045-.095-.095-.12-.002-.035-.015-.062-.05-.072-.026-.045-.047-.093-.08-.132-.036-.042-.048-.106-.128-.11a3.109 3.109 0 0 1-.923-.189l-.23-.094c-.106-.079-.23-.134-.322-.232l-.091-.062-.048-.068-.003-.007-.076-.092-.068-.1-.049-.093c-.008-.028-.016-.057-.046-.072l-.015-.074a1.597 1.597 0 0 1-.085-.383c0-.086.004-.173 0-.26-.002-.062.029-.061.072-.05" fill="#EA5176"/><g transform="translate(31.36 38.31)"><mask id="h" fill="#fff"><use xlink:href="#g"/></mask><path d="M.002.594c.187.054.361.143.552.19.639.156 1.258.068 1.865-.15A4.56 4.56 0 0 0 3.54.042c.054-.039.093-.05.159-.016.284.145.594.21.902.275.388.083.78.144 1.172.187.283.03.566.068.852.08.345.015.689.05 1.033.076-.253.312-.551.578-.847.848l-.111.093a7.621 7.621 0 0 1-.8.546c-.42.24-.866.405-1.336.51a.239.239 0 0 0-.12.02c-.04.003-.08.003-.12.008-.39.048-.777.03-1.163-.043a5.003 5.003 0 0 1-1.11-.377l-.436-.245-.12-.077c-.248-.17-.485-.357-.721-.545l-.065-.061C.465 1.095.229.86.004.615a.189.189 0 0 0-.002-.02" fill="#F6F7F7" mask="url(#h)"/></g><circle fill="#793591" cx="64" cy="11" r="4"/><path d="M10 68h55v2H10v-2zm0 3h55v2H10v-2zm0 3h40v2H10v-2z" fill="#9460A8"/><g transform="translate(10 59)"><circle fill="#FFF" cx="3" cy="3" r="3"/><path d="M16 1h21v4H16V1zm33 0h6v4h-6V1z" fill="#9460A8"/></g><g transform="translate(10 80)"><circle fill="#793591" cx="3" cy="3" r="3"/><circle fill="#FFF" cx="10" cy="3" r="3"/><path d="M16 1h28v4H16V1zm33 0h6v4h-6V1z" fill="#9460A8"/></g><path d="M10 92h12v2H10v-2zm43 0h12v2H53v-2zm-21 0h12v2H32v-2z" fill="#9460A8"/></g></svg>