<svg width="75" height="106" viewBox="0 0 75 106" xmlns="http://www.w3.org/2000/svg"><title>format-text</title><g fill="none" fill-rule="evenodd"><rect width="75" height="106" rx="5" fill="#FFE259"/><path fill="#FFF" d="M5 5h65v32H5z"/><path fill="#D0011B" d="M5 9h20v4H5z"/><path d="M10 17h55v2H10v-2zm0 3h55v2H10v-2zm0 3h40v2H10v-2zm0 9h20v2H10v-2zm42 0h10v2H52v-2z" fill="#CCC"/><path fill="#D0011B" d="M65 32h5v5h-5z"/><circle fill="#CCC" cx="64" cy="11" r="2"/><path fill="#F5F5F5" d="M5 37h65v32H5z"/><path fill="#4990E2" d="M5 41h35v4H5z"/><path d="M10 49h55v2H10v-2zm0 3h55v2H10v-2zm0 3h20v2H10v-2zm0 9h20v2H10v-2zm42 0h10v2H52v-2z" fill="#CCC"/><path fill="#4990E2" d="M65 64h5v5h-5z"/><circle fill="#CCC" cx="64" cy="43" r="2"/><path fill="#FFF" d="M5 69h65v32H5z"/><path fill="#09C87E" d="M5 73h25v4H5z"/><path d="M10 81h55v2H10v-2zm0 3h55v2H10v-2zm0 3h45v2H10v-2zm0 9h20v2H10v-2zm42 0h10v2H52v-2z" fill="#CCC"/><path fill="#09C87E" d="M65 96h5v5h-5z"/><circle fill="#CCC" cx="64" cy="75" r="2"/></g></svg>